<?xml version="1.0" encoding="utf-8"?>
<!-- Generator: Adobe Illustrator 19.2.1, SVG Export Plug-In . SVG Version: 6.00 Build 0)  -->
<svg version="1.1" id="layer" xmlns="http://www.w3.org/2000/svg" xmlns:xlink="http://www.w3.org/1999/xlink" x="0px" y="0px"
	 viewBox="0 0 652 652" style="enable-background:new 0 0 652 652;" xml:space="preserve">
<style type="text/css">
	.st0{fill:#212835;}
	.st1{filter:url(#Adobe_OpacityMaskFilter);}
	.st2{fill:#FFFFFF;}
	.st3{mask:url(#b_1_);fill:#212835;}
	.st4{filter:url(#Adobe_OpacityMaskFilter_1_);}
	.st5{mask:url(#d_1_);fill:#212835;}
</style>
<g>
	<path class="st0" d="M320.4,329.2V358h25.2c13.2,0,22.1-2.5,22.1-14.6c0-11.8-8.9-14.3-22.1-14.3L320.4,329.2L320.4,329.2z
		 M320.4,285.4v28.1h23.1c11.7,0,21.9-1.8,21.9-14.2c0-12-10.3-13.8-22-13.8C343.3,285.4,320.4,285.4,320.4,285.4z M344,269.6
		c22.3,0,39,7.7,39,28.4c0,10.7-6.9,19.6-16.1,22.2c9.9,2.9,18.5,11.9,18.5,23.9c0,20.8-15.3,29.8-39,29.8h-42.8V269.6L344,269.6
		L344,269.6z M411,338.2c0,12.5,8.1,22.8,21.5,22.8c12.9,0,21.5-9.8,21.5-22.8s-8.6-22.8-21.5-22.8C419.1,315.3,411,325.7,411,338.2
		z M468.6,373.8H453v-8.6c-4.9,6.3-12.3,10.4-22.4,10.4c-19.9,0-35.6-15.7-35.6-37.5s15.7-37.5,35.6-37.5c10.1,0,17.5,4.2,22.4,10.5
		v-8.6h15.6V373.8z M535.5,320.4c-4.3-2.7-13.2-6.1-22-6.1c-8.5,0-13.5,3.4-13.5,8.5c0,5,5.2,6.4,11.8,7.4l7.4,1.1
		c15.6,2.2,24.8,8.9,24.8,21.1c0,13.7-11.9,23.3-32.4,23.3c-7.4,0-20.2-1.4-30.6-9.1l7.2-11.7c5.1,3.9,11.9,7.3,23.5,7.3
		c10.6,0,16.2-3.3,16.2-8.7c0-4-3.9-6.7-12.4-7.9l-7.4-1c-15.8-2.2-24.2-9.4-24.2-20.9c0-14.1,11.3-22.8,29.5-22.8
		c11.2,0,21.5,2.8,28.9,7.5C542.2,308.3,535.5,320.4,535.5,320.4z"/>
	<g transform="translate(81.855 12.885)">
		<defs>
			<filter id="Adobe_OpacityMaskFilter" filterUnits="userSpaceOnUse" x="469.3" y="287.8" width="69.2" height="75">
				<feColorMatrix  type="matrix" values="1 0 0 0 0  0 1 0 0 0  0 0 1 0 0  0 0 0 1 0"/>
			</filter>
		</defs>
		<mask maskUnits="userSpaceOnUse" x="469.3" y="287.8" width="69.2" height="75" id="b_1_">
			<g class="st1">
				<path id="a_1_" class="st2" d="M538.5,362.8v-75h-69.2v75C469.3,362.8,538.5,362.8,538.5,362.8z"/>
			</g>
		</mask>
		<path class="st3" d="M485.6,319.2h37c-1.7-11.1-8.2-17.6-18.1-17.6C493.4,301.6,487.2,308.8,485.6,319.2 M538.5,325.2
			c0,2-0.1,4-0.3,5.8h-52.7c2.1,12.8,11.1,18.2,21.2,18.2c7.1,0,14.7-2.8,20.6-7.5l7.7,11.1c-8.7,7.4-18.5,10-29.3,10
			c-21.4,0-36.5-14.9-36.5-37.5c0-22.3,14.5-37.5,35.5-37.5C524.7,287.8,538.4,303,538.5,325.2"/>
	</g>
	<g transform="translate(0 4.014)">
		<defs>
			<filter id="Adobe_OpacityMaskFilter_1_" filterUnits="userSpaceOnUse" x="20.3" y="239.1" width="219.7" height="156.7">
				<feColorMatrix  type="matrix" values="1 0 0 0 0  0 1 0 0 0  0 0 1 0 0  0 0 0 1 0"/>
			</filter>
		</defs>
		<mask maskUnits="userSpaceOnUse" x="20.3" y="239.1" width="219.7" height="156.7" id="d_1_">
			<g class="st4">
				<path id="c_1_" class="st2" d="M130.2,395.9H20.3V239.1H240v156.7H130.2z"/>
			</g>
		</mask>
		<path class="st5" d="M147.8,377.6l32.9-49.3l32.9,49.3H147.8z M232.6,387.7c2.8-5.1,2.1-11.4-1.8-17.3l-39.1-58.7l48.4-72.6h-22
			l-37.4,56.2l-31.6-47.4c-3.7-5.5-9.2-8.7-15.1-8.7c-5.9,0-11.4,3.2-15,8.7l-98.6,148h22L134,258.3l35.7,53.5l-39.1,58.7
			c-3.9,5.8-4.5,12.1-1.8,17.3c2.8,5.2,8.4,8.1,15.3,8.1h73.1C224.2,395.9,229.8,392.9,232.6,387.7L232.6,387.7z"/>
	</g>
</g>
</svg>
